<?xml version="1.0" standalone="no"?><!DOCTYPE svg PUBLIC "-//W3C//DTD SVG 1.1//EN" "http://www.w3.org/Graphics/SVG/1.1/DTD/svg11.dtd"><svg t="1565688543149" class="icon" viewBox="0 0 1024 1024" version="1.1" xmlns="http://www.w3.org/2000/svg" p-id="11047" xmlns:xlink="http://www.w3.org/1999/xlink" width="200" height="200"><defs><style type="text/css"></style></defs><path d="M1002.355354 1002.26159c-19.937157 19.937157-52.309128 19.937157-72.247518 0l-216.645089-216.643855c-6.611586-6.612819-10.758169-14.607422-13.028241-22.998053-73.135807 59.416675-166.406169 95.145639-268.065928 95.145638-235.001831 0-425.489272-190.487441-425.489272-425.490506 0-9.178988-0.592193-7.994602 0-16.976192l238.258892 153.18053h-102.153253c50.632482 108.667373 161.569928 187.231614 289.384867 187.231614 165.221783 0 307.742843-128.209735 323.435952-289.384867l93.36906 52.211662c-14.013995 68.00347-44.511923 129.887614-86.656308 181.803181 8.488096 2.171373 16.580164 6.415422 23.194217 13.12694l216.643855 216.645089c20.034622 19.93839 20.034622 52.211663-0.001234 72.148819zM616.937793 296.17041h103.041542C668.853359 187.503036 556.927692 108.938795 427.928366 108.938795c-166.800964 0-310.605108 128.209735-326.495614 289.384868l-94.25735-52.211663C47.445745 152.464964 220.463499 6.785542 427.928366 6.785542c237.27067 0 429.537157 190.488675 429.537157 425.490506 0 9.178988 0.590959 7.994602 0 16.976193L616.937793 296.17041z" p-id="11048"></path><path d="M577.120231 399.95466c-1.127634-2.287345-4.693128-7.678766-13.474853-8.351152a11.286207 11.286207 0 0 0-0.816732-0.027142l-90.440174-0.579855 23.269475-115.65895c0.070323-0.318304 0.118439-0.648945 0.154217-0.968481 0.817966-7.242024-0.642776-12.981359-4.342747-17.066256-3.092973-3.427316-7.496173-5.309995-12.401504-5.309995-5.615961 0-10.499084 2.482275-11.861127 3.242255a11.45893 11.45893 0 0 0-3.191673 2.627856L290.014072 463.753561a10.690313 10.690313 0 0 0-0.751344 1.004261c-2.679672 3.966458-4.420472 10.284414-1.276916 16.097773 1.606323 2.973301 5.751672 7.950188 15.447595 7.950188 0.463884 0 0.942573-0.014805 1.457041-0.033311l80.06693-0.055518-44.705619 129.447171a11.07894 11.07894 0 0 0-0.534207 2.288579c-0.233176 1.830863-0.627971 8.198169 4.001002 13.383556 3.038689 3.394005 7.406111 5.272983 12.318844 5.272983 3.00908 0 6.193349-0.683489 9.732935-2.078843a11.719248 11.719248 0 0 0 4.163855-2.820318l204.141185-216.019586c0.431807-0.457716 0.822901-0.947508 1.176984-1.473079 1.366978-2.033195 5.55921-9.248077 1.867874-16.762757z" p-id="11049"></path></svg>