<?xml version="1.0" standalone="no"?><!DOCTYPE svg PUBLIC "-//W3C//DTD SVG 1.1//EN" "http://www.w3.org/Graphics/SVG/1.1/DTD/svg11.dtd"><svg t="1565688349085" class="icon" viewBox="0 0 1024 1024" version="1.1" xmlns="http://www.w3.org/2000/svg" p-id="8843" xmlns:xlink="http://www.w3.org/1999/xlink" width="200" height="200"><defs><style type="text/css"></style></defs><path d="M928 364.8L544 128c-6.4-6.4-19.2-12.8-32-12.8-32 0-64 25.6-64 64V320L166.4 128c-12.8-6.4-25.6-6.4-38.4-6.4-32 0-64 25.6-64 64V832c0 70.4 57.6 128 128 128h640c70.4 0 128-57.6 128-128V422.4c0-25.6-12.8-44.8-32-57.6zM896 832c0 38.4-25.6 64-64 64H192c-38.4 0-64-25.6-64-64V185.6l281.6 192 102.4 64V179.2l384 236.8V832zM416 512h-128c-19.2 0-32 12.8-32 32s12.8 32 32 32h128c19.2 0 32-12.8 32-32S435.2 512 416 512z m192 64h128c19.2 0 32-12.8 32-32s-12.8-32-32-32h-128c-19.2 0-32 12.8-32 32s12.8 32 32 32z m-192 128h-128c-19.2 0-32 12.8-32 32s12.8 32 32 32h128c19.2 0 32-12.8 32-32s-12.8-32-32-32z m192 64h128c19.2 0 32-12.8 32-32s-12.8-32-32-32h-128c-19.2 0-32 12.8-32 32s12.8 32 32 32z" fill="" p-id="8844"></path></svg>