<?xml version="1.0" standalone="no"?><!DOCTYPE svg PUBLIC "-//W3C//DTD SVG 1.1//EN" "http://www.w3.org/Graphics/SVG/1.1/DTD/svg11.dtd"><svg t="1565688518693" class="icon" viewBox="0 0 1024 1024" version="1.1" xmlns="http://www.w3.org/2000/svg" p-id="10820" xmlns:xlink="http://www.w3.org/1999/xlink" width="200" height="200"><defs><style type="text/css"></style></defs><path d="M807.681672 814.553747c-4.621927-7.784297-5.594964-17.636299-2.310963-26.150374-5.594964-4.621927-11.798076-8.149186-18.244447-10.825038-5.838223 6.81126-14.352298 11.068298-23.839411 11.068298-9.122224 0-18.001188-3.892149-23.839411-11.068298-6.568001 2.554223-12.771113 6.203112-18.244447 10.825038 3.284 8.514075 2.310963 18.001188-2.310963 26.150374-4.621927 7.784297-12.406224 13.379261-21.528448 15.082077-0.608148 3.648889-0.973037 6.81126-0.973037 10.460149s0.364889 7.176149 0.973037 10.825039c9.122224 1.581185 17.028151 6.81126 21.528448 15.082076 4.621927 7.784297 5.230075 17.27141 2.310963 25.785485 5.594964 4.621927 11.798076 8.149186 18.244447 10.825039 5.838223-6.81126 14.352298-10.825039 23.474522-10.825039s17.636299 3.892149 23.474522 10.825039c6.568001-2.554223 12.771113-6.203112 18.244447-10.825039-3.284-8.514075-2.310963-18.001188 2.310964-25.785485 4.621927-8.149186 12.771113-13.379261 22.258225-15.082076 0.608148-3.648889 0.973037-7.176149 0.973037-10.825039s-0.364889-6.81126-0.973037-10.460149c-9.122224-1.702815-16.906521-6.93289-21.528448-15.082077z m-45.002969 55.21986c-16.298373 0-29.434375-13.014372-29.434375-29.434374 0-16.298373 13.014372-29.434375 29.434375-29.434375 16.298373 0 29.434375 13.379261 29.434375 29.434375-0.12163 16.420002-13.136002 29.434375-29.434375 29.434374z" p-id="10821"></path><path d="M763.165222 687.085877c-84.532605 0-153.010096 68.477491-153.010097 153.010096s68.477491 153.010096 153.010097 153.010097 153.010096-68.477491 153.010096-153.010097-68.599121-153.010096-153.010096-153.010096z m74.315714 168.94358v0.364889c0 0.608148-0.364889 0.973037-1.337926 1.337926l-0.973037 0.973037c-0.364889 0.364889-0.973037 0.364889-1.337926 0.608149h-0.364889c-0.364889 0.364889-0.973037 0.364889-1.337926 0.364889-7.176149 0.608148-13.74415 4.621927-17.27141 10.825038-3.648889 6.203112-3.892149 13.74415-0.608149 20.312151 0.364889 0 0.364889 0.364889 0.364889 0.364889v0.364889c0.364889 0.608148 0.364889 0.973037 0.364889 1.581186v0.364889c0 0.608148 0 0.973037-0.364889 1.581185v0.364889c-0.364889 0.364889-0.608148 0.973037-0.973037 1.337926l-0.364889 0.364889c-8.149186 7.541038-17.636299 12.771113-27.731559 16.055113-0.364889 0.364889-0.973037 0.364889-1.337927 0.364889-0.364889 0-0.973037-0.364889-1.337926-0.364889h-0.364889c-0.364889 0-0.608148 0-0.973037-0.364889l-0.364889-0.364889-0.608148-0.608148-0.364889-0.364889c-3.892149-6.203112-10.825039-9.852001-18.001188-9.852001s-14.109039 3.648889-18.001187 9.852001l-1.337927 1.337926c-0.364889 0.364889-0.973037 0.608148-1.337926 0.608149h-0.364889c-0.364889 0.364889-0.973037 0.364889-1.337926 0.364889-0.364889 0-0.973037-0.364889-1.337926-0.364889h-0.364889c-10.095261-3.284-19.217484-8.878964-27.4883-16.055114-0.364889-0.364889-0.608148-0.608148-0.973037-1.337926v-0.364889c0-0.608148-0.364889-0.973037-0.364889-1.581185v-0.364889c0-0.608148 0-0.973037 0.364889-1.581186v-0.364889c0.364889 0 0.364889-0.364889 0.364889-0.364888 3.284-6.568001 2.919112-14.109039-0.608149-20.312152-3.648889-6.568001-10.095261-10.46015-17.271409-10.825038-0.364889 0-0.973037-0.364889-1.337927-0.364889h-0.364889c-0.608148-0.364889-0.973037-0.608148-0.364888-1.337926l-0.973038-0.973037c-0.364889-0.364889-0.608148-0.608148-0.608148-1.337927v-0.364888c-0.973037-5.230075-1.581185-10.825039-1.581185-16.055114 0-5.230075 0.608148-10.46015 1.581185-15.690224v-1.337927c0.364889 0 0.364889-0.364889 0.364889-0.364888 0.364889 0 0.364889-0.364889 0.364889-0.364889l0.364889-0.364889 0.364889-0.364889 0.364889-0.364889 0.364889-0.364889 0.364889-0.364889c0-0.364889 0.364889-0.364889 0.364889-0.364889 0.364889-0.364889 0.364889-0.364889 0.608148-0.364889h1.337926c7.541038-0.608148 14.109039-4.621927 17.636299-10.825039 3.648889-6.568001 3.648889-14.109039 0.364889-20.55541-0.364889-0.364889-0.364889-0.364889-0.364889-0.608148v-0.364889c-0.364889-0.608148-0.364889-0.973037-0.364889-1.581186v-0.364889c0-0.608148 0-0.973037 0.364889-1.581185v-0.364889c0.364889-0.364889 0.608148-0.973037 0.973037-1.337926 7.784297-7.176149 17.27141-12.771113 27.4883-16.055113h3.64889c0.364889 0.364889 0.608148 0.364889 0.608148 0.364889 0 0.364889 0.364889 0.364889 0.364889 0.364888l0.364889 0.364889 0.364889 0.364889 0.364889 0.364889 0.364889 0.364889c0.364889 0 0.364889 0.364889 0.364889 0.364889 3.892149 6.203112 10.825039 9.852001 18.001187 9.852002s14.109039-3.648889 18.001188-9.852002c0.364889 0 0.364889-0.364889 0.364889-0.364889l0.364889-0.364889 0.973037-0.973037c0-0.364889 0.364889-0.364889 0.364889-0.364889 0-0.364889 0.364889-0.364889 0.364889-0.364889h2.919112c10.46015 3.284 19.582373 8.514075 27.731559 16.055114 0.364889 0.364889 0.608148 0.608148 0.973037 1.337926v0.364889c0 0.608148 0.364889 0.973037 0.364889 1.581185v0.364889c0 0.608148 0 0.973037-0.364889 1.581185v0.364889c-0.364889 0.364889-0.364889 0.608148-0.364889 0.608149-3.648889 6.568001-3.284 14.352298 0.364889 20.55541 3.892149 6.568001 10.46015 10.46015 17.636299 10.825039h1.337926c0 0.364889 0.364889 0.364889 0.364889 0.364889 0 0.364889 0.364889 0.364889 0.364889 0.364889 0 0.364889 0.364889 0.364889 0.364889 0.364888l1.337926 1.337927c0.364889 0 0.364889 0.364889 0.364889 0.364889 0.364889 0 0.364889 0.364889 0.364889 0.364888v0.973038c0.973037 5.230075 1.581185 10.825039 1.581186 16.055113-0.608148 5.473334-1.216296 10.946668-2.189334 16.176743z" p-id="10822"></path><path d="M89.336976 770.037297L499.958665 1007.093479c7.419408 4.257038 16.663262 4.257038 24.08267 0l110.31809-63.733935c-10.095261-12.527854-18.366077-26.515263-24.447559-41.597339l-98.033496 56.557785-386.417389-223.068773v-446.380805L512 65.801639 898.417389 288.870412v446.259176l-5.351704 3.040741c9.852001 12.649483 18.001188 26.758522 23.96104 41.840599l17.514669-10.095261c7.419408-4.257038 12.041335-12.284594 12.041336-20.920299V275.004632c0-8.635705-4.621927-16.541632-12.041336-20.920299L524.041335 17.14978c-7.419408-4.257038-16.663262-4.257038-24.08267 0L89.336976 254.084333c-6.689631 3.892149-11.068298 10.703409-11.919706 18.366077v479.22081c0.851408 7.662668 5.230075 14.473928 11.919706 18.366077z" p-id="10823"></path><path d="M671.456468 356.983015c-70.788455 0-137.441501-58.260601-138.04965-58.86875-6.081482-5.473334-13.74415-8.270816-21.406818-8.270816-7.662668 0-15.325336 2.675852-21.285188 8.149187-0.973037 0.851408-67.017936 58.990379-138.04965 58.990379-17.636299 0-31.866968 14.230669-31.866967 31.745338v96.087421c0 86.965198 51.81423 160.064616 173.200617 244.232331 5.473334 3.770519 11.798076 5.716593 18.244447 5.716594 6.446371 0 12.771113-1.946074 18.244447-5.716594 121.386388-84.167716 173.200618-157.267134 173.200618-244.232331v-96.087421c-0.364889-17.514669-14.595558-31.745338-32.231856-31.745338z m-92.681792 155.321059h-44.516451v44.516451H489.741775v-44.516451h-44.516451v-44.516451H489.741775V423.271172h44.51645v44.516451h44.516451v44.516451z m0 0" p-id="10824"></path></svg>