<?xml version="1.0" standalone="no"?><!DOCTYPE svg PUBLIC "-//W3C//DTD SVG 1.1//EN" "http://www.w3.org/Graphics/SVG/1.1/DTD/svg11.dtd"><svg t="1569562352119" class="icon" viewBox="0 0 1024 1024" version="1.1" xmlns="http://www.w3.org/2000/svg" p-id="1124" xmlns:xlink="http://www.w3.org/1999/xlink" width="200" height="200"><defs><style type="text/css"></style></defs><path d="M808.533333 170.666667 554.666667 170.666667c-17.066667 0-32-14.933333-32-32S537.6 106.666667 554.666667 106.666667l298.666667 0c38.4 0 64 32 64 81.066667L917.333333 469.333333c0 17.066667-14.933333 32-32 32S853.333333 486.4 853.333333 469.333333L853.333333 215.466667l-211.2 211.2c-6.4 6.4-14.933333 8.533333-23.466667 8.533333s-17.066667-2.133333-23.466667-8.533333c-12.8-12.8-12.8-32 0-44.8L808.533333 170.666667zM215.466667 853.333333 469.333333 853.333333c17.066667 0 32 14.933333 32 32S486.4 917.333333 469.333333 917.333333L181.333333 917.333333C136.533333 917.333333 106.666667 864 106.666667 825.6L106.666667 533.333333c0-17.066667 14.933333-32 32-32S170.666667 516.266667 170.666667 533.333333l0 275.2 211.2-211.2c12.8-12.8 32-12.8 44.8 0 12.8 12.8 12.8 32 0 44.8L215.466667 853.333333z" p-id="1125"></path></svg>