<?xml version="1.0" standalone="no"?><!DOCTYPE svg PUBLIC "-//W3C//DTD SVG 1.1//EN" "http://www.w3.org/Graphics/SVG/1.1/DTD/svg11.dtd"><svg t="1571046986359" class="icon" viewBox="0 0 1024 1024" version="1.1" xmlns="http://www.w3.org/2000/svg" p-id="2401" xmlns:xlink="http://www.w3.org/1999/xlink" width="200" height="200"><defs><style type="text/css"></style></defs><path d="M664.130328 894.193609H174.535617c-11.963473 0-22.060435-13.409404-22.060435-29.286V155.618267c0-15.904225 8.452509-31.325449 20.36891-31.32545l625.197108 2.010797c11.960403 0 22.052249 13.410428 22.052249 29.314653l-0.627287 303.180044c0 15.462157 12.550851 28.008914 28.025287 28.008914 15.449877 0 27.999704-12.546757 27.999704-28.008914V149.829424c0-47.422056-35.091216-85.97-78.226642-85.970001H169.405783c-43.139519 0-78.239945 38.547944-78.239945 85.970001V874.29542c0 47.39545 35.100426 85.938278 78.239945 85.938278H662.41015c15.437597 0 25.527396-12.751419 28.013007-28.013008 2.648316-16.259312-2.359744-39.269375-23.443945-36.452213l-2.848884-1.574868z" fill="" p-id="2402"></path><path d="M735.429187 292.539706c0-17.966187-12.550851-32.546254-28.011984-32.546254H259.238764c-15.462157 0-28.013007 14.580067-28.013007 32.546254 0 17.966187 12.549827 32.553417 28.013007 32.553417h448.178439c15.461133 0 28.011984-14.58723 28.011984-32.553417zM618.709859 517.117554c0-18.267039-12.550851-33.098839-28.011984-33.098839h-331.459111c-15.462157 0-28.013007 12.5662-28.013007 28.031427 0 15.458063 12.549827 38.175461 28.013007 38.175461h331.459111c15.461133 0 28.011984-14.83487 28.011984-33.108049zM261.984295 670.953222c-16.980743 0-30.761608 14.58416-30.761608 32.550347 0 17.972327 13.780865 32.549324 30.761608 32.549323h92.279706c16.977673 0 30.758538-14.576997 30.758538-32.549323 0-17.966187-13.780865-32.550347-30.758538-32.550347h-92.279706zM497.342674 693.425026c0 18.599613 12.405541 31.006178 31.005154 31.006178h297.708426l-102.335737 102.329596c-6.212492 6.218632-9.287527 15.518438-9.287527 21.730931 0 6.224772 3.075035 15.524578 9.287527 21.712511 12.411681 12.380982 31.012318 12.380982 43.461861 0L922.217361 715.106838c12.387122-12.412704 12.387122-31.013341 0-43.449582L767.181355 516.615111c-12.424984-12.355399-31.012318-12.355399-43.461861 0-12.374842 12.406564-12.374842 31.006178 0 43.418882l102.335737 102.354156H528.346805c-18.59859 0.024559-31.004131 12.437264-31.004131 31.036877z" fill="" p-id="2403"></path></svg>