<?xml version="1.0" standalone="no"?><!DOCTYPE svg PUBLIC "-//W3C//DTD SVG 1.1//EN" "http://www.w3.org/Graphics/SVG/1.1/DTD/svg11.dtd"><svg t="1571046992491" class="icon" viewBox="0 0 1024 1024" version="1.1" xmlns="http://www.w3.org/2000/svg" p-id="2514" xmlns:xlink="http://www.w3.org/1999/xlink" width="200" height="200"><defs><style type="text/css"></style></defs><path d="M320 384h384v64H320z" p-id="2515"></path><path d="M864 96h-166.4c-12.8-38.4-48-64-89.6-64h-192c-41.6 0-76.8 25.6-89.6 64H160c-35.2 0-64 28.8-64 64v768c0 35.2 28.8 64 64 64h352v-64H160V160h160v64h384V160h160v384h64V160c0-35.2-28.8-64-64-64z m-224 64h-256V128c0-19.2 12.8-32 32-32h192c19.2 0 32 12.8 32 32v32z" p-id="2516"></path><path d="M668.8 598.4l137.6 137.6H512v64h294.4l-137.6 137.6 44.8 44.8L928 768l-214.4-214.4z" p-id="2517"></path></svg>