<?xml version="1.0" standalone="no"?><!DOCTYPE svg PUBLIC "-//W3C//DTD SVG 1.1//EN" "http://www.w3.org/Graphics/SVG/1.1/DTD/svg11.dtd"><svg t="1571046970097" class="icon" viewBox="0 0 1293 1024" version="1.1" xmlns="http://www.w3.org/2000/svg" p-id="1552" xmlns:xlink="http://www.w3.org/1999/xlink" width="252.5390625" height="200"><defs><style type="text/css"></style></defs><path d="M1092.873359 746.457098C1216.480638 631.08529 1293.60827 512.009401 1293.60827 512.009401S1004.050605 64.229155 646.804135 64.229155c-63.401847 0-124.641413 14.271056-182.571749 37.604891l132.030775 135.37761a261.636033 261.636033 0 0 1 50.484567-5.095463c148.821358 0 269.514258 125.299499 269.514258 279.874406a290.648207 290.648207 0 0 1-4.38097 48.886359l180.935936 185.58014zM200.753714 277.561705C77.127633 392.895907 0 512.009401 0 512.009401s289.557665 447.780246 646.804135 447.780247c63.42065 0 124.660216-14.327464 182.590551-37.604892l-132.105984-135.471622a257.236261 257.236261 0 0 1-50.484567 5.095463c-148.802556 0-269.476653-125.337104-269.476653-279.836801a291.738749 291.738749 0 0 1 4.362167-48.886359l-180.917133-185.523732z m585.827803 473.370375l127.048126 130.244542 139.138099 142.804576 93.278934-95.516425-120.61769-123.682488-146.790694-150.588789-125.337104-128.514717a117.534089 117.534089 0 0 0 1.316171-13.631773c0-61.841244-48.284681-111.93096-107.813224-111.93096a105.293696 105.293696 0 0 0-14.440278 1.485394l-125.337104-128.477112-126.991719-130.338555L240.746516 0 147.580397 95.516425l120.598887 123.720093 146.828299 150.532381 125.337104 128.514717a117.364867 117.364867 0 0 0-1.334974 13.669378c0 61.803639 48.265878 111.93096 107.794422 111.93096a105.876572 105.876572 0 0 0 14.496686-1.522998z m-125.299499-128.514717" p-id="1553"></path></svg>