<?xml version="1.0" standalone="no"?><!DOCTYPE svg PUBLIC "-//W3C//DTD SVG 1.1//EN" "http://www.w3.org/Graphics/SVG/1.1/DTD/svg11.dtd"><svg t="1565688496628" class="icon" viewBox="0 0 1024 1024" version="1.1" xmlns="http://www.w3.org/2000/svg" p-id="10087" xmlns:xlink="http://www.w3.org/1999/xlink" width="200" height="200"><defs><style type="text/css"></style></defs><path d="M939.101913 588.239382l-2.322905-0.969071c9.441023-51.574632 9.491165-105.21532-0.73985-158.461011l78.376045-75.748195-34.850739-84.166935-111.568005-4.209882-0.943488 0.396019c-30.360472-43.626613-68.01814-80.479963-110.572328-109.565395l-0.153496-111.644753-84.11577-34.863019-82.049714 78.056774c-50.591235-9.325389-103.199407-9.66922-155.372673-0.153496L353.327676 9.990538l-82.381266 34.148751-1.378393 110.930485c-44.494377 30.512944-82.099856 68.514443-111.694895 111.657033l-111.057375 0.152473-35.539424 85.876879 77.737502 80.45438c-9.337669 50.324152-9.847276 102.625332-0.586354 154.557098l-3.826142 1.581008-72.100108 80.353073 34.850739 84.166935 106.235556-2.755764 0.765433-0.319272c30.309306 45.170782 68.221778 83.337033 111.414509 113.340371l-1.556449 3.687996 7.398504 108.798938 84.141352 34.863019 81.105203-74.126254 1.045819-2.538823c50.719148 8.840342 103.378485 8.686846 155.577335-1.312902l78.017888 78.234829 84.11577-34.864042 3.112897-112.919792c43.37181-30.207999 80.084966-67.569932 109.092627-109.781312l0.485047 0.203638 111.134123-0.357134 35.565007-85.901439L939.101913 588.239382zM857.104387 524.852726c-0.281409 7.003508-0.536212 13.993712-1.251503 20.99722-0.280386 2.615571-0.152473 5.294586-0.458441 7.909134l-0.638543-0.254803c-3.749394 29.990035-11.148921 59.96779-23.293519 89.243557-11.787464 28.561499-27.298739 54.406121-45.25981 77.81425l0.051165 0.024559c-0.152473 0.217964-0.382717 0.421602-0.560772 0.651846-55.95029 72.634274-138.024563 119.016651-226.809679 131.034359l0.075725 0.191358c-0.841158 0.113587-1.684362 0.076748-2.52552 0.178055-26.176173 3.354398-52.862975 3.776-79.626525 0.931209-1.836835-0.191358-3.724835-0.089028-5.587252-0.319272l0.204661-0.447185c-30.309306-3.711532-60.618613-11.187807-90.213651-23.445992-29.849842-12.386098-56.842613-28.726252-81.07962-47.78533l-0.51063 1.25048c-23.879873-18.624173-45.336558-40.667212-63.883983-65.542762l1.37737-0.574075c-35.563984-47.811936-58.347896-104.092753-65.770959-163.294087l-1.276063 0.509606c-3.520173-29.186739-3.342118-58.385758 0.408299-86.948281l1.045819 0.433882c3.801583-29.760814 11.148921-59.508325 23.191188-88.554872 11.914354-28.791743 27.553543-54.827723 45.719274-78.375022l-0.842181-0.344854c2.321882-3.048429 5.154393-5.701862 7.603165-8.674567 1.556449-1.90028 3.239787-3.66139 4.821819-5.523807 15.205307-17.705244 31.737842-34.391275 50.566676-48.920176l0.357134 0.841158c94.499258-72.711022 224.001727-94.550423 342.051353-45.616944 116.746958 48.384987 192.417381 153.650449 209.026664 270.385127l0.688685-0.280386c0.433882 3.061732 0.331551 6.096858 0.689708 9.159614 0.714268 6.440689 1.020236 12.947893 1.428535 19.440771C857.48608 502.300081 857.561805 513.575892 857.104387 524.852726zM566.053592 251.954359 322.176189 541.691229l198.694341-3.316535-98.505501 258.534218 300.642245-335.799976-220.583884 0.995677L566.053592 251.954359z" p-id="10088"></path></svg>