<?xml version="1.0" standalone="no"?><!DOCTYPE svg PUBLIC "-//W3C//DTD SVG 1.1//EN" "http://www.w3.org/Graphics/SVG/1.1/DTD/svg11.dtd"><svg t="1565688333242" class="icon" viewBox="0 0 1160 1024" version="1.1" xmlns="http://www.w3.org/2000/svg" p-id="8724" xmlns:xlink="http://www.w3.org/1999/xlink" width="226.5625" height="200"><defs><style type="text/css"></style></defs><path d="M768 943.304348h-584.347826c-16.695652 0-30.608696 16.695652-30.608696 38.956522 0 22.26087 13.913043 38.956522 30.608696 38.956521h584.347826c16.695652 0 30.608696-16.695652 30.608696-38.956521 0-19.478261-13.913043-38.956522-30.608696-38.956522zM620.521739 692.869565H114.086957c-22.26087 0-38.956522-19.478261-38.956522-41.73913V119.652174c0-22.26087 16.695652-41.73913 38.956522-41.739131h865.391304c22.26087 0 38.956522 19.478261 38.956522 41.739131v267.130435c27.826087 8.347826 52.869565 22.26087 75.130434 38.956521v-306.086956c0-66.782609-50.086957-119.652174-114.086956-119.652174H114.086957C50.086957 0 0 52.869565 0 119.652174v531.478261c0 66.782609 50.086957 119.652174 114.086957 119.652174h517.565217c-8.347826-25.043478-11.130435-50.086957-11.130435-77.913044z" fill="#707070" p-id="8725"></path><path d="M918.26087 434.086957c-133.565217 0-242.086957 108.521739-242.086957 242.086956S784.695652 918.26087 918.26087 918.26087s242.086957-108.521739 242.086956-242.086957-108.521739-242.086957-242.086956-242.086956z m133.565217 203.130434c-5.565217 0-8.347826-2.782609-13.913044-2.782608l-50.086956 94.608695c11.130435 8.347826 16.695652 22.26087 16.695652 36.173913 0 27.826087-22.26087 50.086957-50.086956 50.086957s-50.086957-22.26087-50.086957-50.086957c0-8.347826 2.782609-13.913043 5.565217-22.260869l-64-44.521739c-5.565217 5.565217-13.913043 8.347826-25.043478 8.347826-2.782609 0-5.565217 0-8.347826-2.782609L779.130435 751.304348c2.782609 5.565217 2.782609 8.347826 2.782608 13.913043 0 19.478261-13.913043 33.391304-33.391304 33.391305s-33.391304-13.913043-33.391304-33.391305 13.913043-33.391304 33.391304-33.391304c5.565217 0 8.347826 0 13.913044 2.782609l30.608695-41.739131c-5.565217-5.565217-11.130435-16.695652-11.130435-25.043478 0-22.26087 16.695652-38.956522 38.956522-38.956522 22.26087 0 38.956522 16.695652 38.956522 38.956522 0 5.565217 0 8.347826-2.782609 11.130435l64 47.304348c8.347826-8.347826 19.478261-11.130435 30.608696-11.130435 5.565217 0 8.347826 2.782609 13.913043 2.782608l50.086957-91.826086c-16.695652-11.130435-25.043478-27.826087-25.043478-47.304348 0-33.391304 27.826087-58.434783 58.434782-58.434783 33.391304 0 58.434783 27.826087 58.434783 58.434783 2.782609 30.608696-22.26087 58.434783-55.652174 58.434782zM667.826087 320h-114.086957l64-147.478261h-94.608695l-100.173913 228.173913h94.608695l-64 197.565218z" fill="#707070" p-id="8726"></path></svg>