<?xml version="1.0" standalone="no"?><!DOCTYPE svg PUBLIC "-//W3C//DTD SVG 1.1//EN" "http://www.w3.org/Graphics/SVG/1.1/DTD/svg11.dtd"><svg t="1565675134351" class="icon" viewBox="0 0 1024 1024" version="1.1" xmlns="http://www.w3.org/2000/svg" p-id="18415" xmlns:xlink="http://www.w3.org/1999/xlink" width="200" height="200"><defs><style type="text/css"></style></defs><path d="M330 682.4c28.5-23.1 62-42.6 99.2-57.7 8.8-3.6 17.8-6.9 27-10-9.9-10.7-18.9-22.4-27-35.1-25.6-40.4-39.1-87.6-39.1-136.4 0-64.4 23.3-125.2 65.7-171.2 21.1-22.9 45.7-40.8 73.3-53.5 3.3-1.5 6.5-2.9 9.8-4.2-0.2-1.9-0.8-3.7-1.7-5.5-29.1-53.7-82.8-89.8-144.3-89.8-92.4 0-167.2 81.3-167.2 181.4 0 76.2 43.3 141.4 104.6 168.2 3.8 1.7 6.3 5.3 6.3 9.5v26.6c0 4.3-3.2 7.9-7.4 8.5C180.3 533.3 67.4 622.4 64.6 730c-0.1 2.3 1.8 4.2 4.1 4.2h210.8c14-18.5 30.9-35.9 50.5-51.8z" p-id="18416"></path><path d="M678.6 649.9v-27.4c0-4.3 2.6-8 6.5-9.8C748.4 585 793 517.8 793 439.3c0-103.3-77.2-187.1-172.4-187.1S448.2 336 448.2 439.3c0 78.6 44.7 145.8 107.9 173.4 3.9 1.7 6.5 5.5 6.5 9.8v27.4c0 4.4-3.3 8.1-7.7 8.7C401.4 679.4 285.1 771.2 282.2 882c-0.1 2.4 1.9 4.3 4.3 4.3h668.6c2.4 0 4.3-1.9 4.3-4.3-3-110.8-119.4-202.7-272.8-223.4-4.7-0.5-8-4.3-8-8.7z" p-id="18417"></path></svg>