<?xml version="1.0" standalone="no"?><!DOCTYPE svg PUBLIC "-//W3C//DTD SVG 1.1//EN" "http://www.w3.org/Graphics/SVG/1.1/DTD/svg11.dtd"><svg t="1565688410740" class="icon" viewBox="0 0 1024 1024" version="1.1" xmlns="http://www.w3.org/2000/svg" p-id="9697" xmlns:xlink="http://www.w3.org/1999/xlink" width="200" height="200"><defs><style type="text/css"></style></defs><path d="M633.377342 864.14273H405.809099c-12.560214 0-22.836753-10.276539-22.836753-22.836753s10.276539-22.836753 22.836753-22.836753h227.568243c12.560214 0 22.836753 10.276539 22.836753 22.836753s-10.276539 22.836753-22.836753 22.836753zM633.377342 946.012489H405.809099c-12.560214 0-22.836753-10.276539-22.836753-22.836753s10.276539-22.836753 22.836753-22.836753h227.568243c12.560214 0 22.836753 10.276539 22.836753 22.836753s-10.276539 22.836753-22.836753 22.836753zM586.333631 1024H452.85281c-12.560214 0-22.836753-10.276539-22.836753-22.836753s10.276539-22.836753 22.836753-22.836753h133.480821c12.560214 0 22.836753 10.276539 22.836753 22.836753s-10.162355 22.836753-22.836753 22.836753zM512.799286 445.088314c-5.823372 0-11.53256-2.169492-15.985727-6.622658l-103.222123-101.623551c-9.020517-8.906334-9.134701-23.293488-0.228367-32.314005 8.906334-9.020517 23.293488-9.134701 32.314005-0.228368l87.008029 85.866191 154.719-154.719001c8.906334-8.906334 23.407672-8.906334 32.314006 0 8.906334 8.906334 8.906334 23.407672 0 32.314006L529.013381 438.465656c-4.453167 4.453167-10.276539 6.622658-16.214095 6.622658z" p-id="9698"></path><path d="M782.958073 249.834077c5.595004 21.694915 8.449599 44.303301 8.449599 67.254237 0 70.793934-95.571811 217.520071-132.453167 268.103479-0.114184 0.114184-0.228368 0.342551-0.342551 0.570919-20.32471 29.573595-32.884924 64.171276-36.08207 99.910794l-4.681534 50.811775H424.306869l-4.681534-50.811775c-3.311329-35.739518-15.75736-70.337199-36.08207-99.910794-0.114184-0.228368-0.228368-0.342551-0.342551-0.570919-36.881356-50.583408-132.453167-197.309545-132.453167-268.103479 0-72.164139 28.089206-140.103479 79.129349-191.143622C380.917038 74.90455 448.856378 46.815343 521.020517 46.815343s140.103479 28.089206 191.143622 79.129349c22.494202 22.494202 40.535236 48.299732 53.780553 76.274755l34.026762-34.026762c-14.501338-27.061552-33.113292-52.18198-55.493309-74.561998C684.760036 34.026762 605.402319 1.141838 521.020517 1.141838 436.638715 1.141838 357.280999 34.026762 297.56289 93.744871s-92.603033 139.075825-92.603033 223.457627c0 43.047279 24.092774 106.076717 71.479037 187.489741 33.455843 57.32025 66.340767 102.993756 69.537912 107.218555 15.871543 23.06512 25.577163 50.126673 28.089206 77.987511l6.508475 71.59322c1.027654 11.760928 10.961641 20.781445 22.722569 20.781446h235.218555c11.760928 0 21.694915-9.020517 22.722569-20.781446l6.508475-71.59322c2.512043-27.860839 12.217663-54.808207 28.089206-77.987511 3.197145-4.338983 36.08207-49.898305 69.537912-107.218555 47.500446-81.413024 71.479037-144.442462 71.479037-187.489741 0-35.967886-5.937556-71.022302-17.470116-103.907226l-36.424621 36.538805z" p-id="9699"></path></svg>