<?xml version="1.0" standalone="no"?><!DOCTYPE svg PUBLIC "-//W3C//DTD SVG 1.1//EN" "http://www.w3.org/Graphics/SVG/1.1/DTD/svg11.dtd"><svg t="1571046956850" class="icon" viewBox="0 0 1024 1024" version="1.1" xmlns="http://www.w3.org/2000/svg" p-id="1440" xmlns:xlink="http://www.w3.org/1999/xlink" width="200" height="200"><defs><style type="text/css"></style></defs><path d="M601.12365122 793.08228473l41.13399321 75.41232013c6.85566481 13.71133106 27.42266213 27.42266213 47.98965801 27.42266069 6.85566481 0 20.56699587 0 27.42266215-6.8556648 13.71133106-6.85566481 20.56699587-20.56699587 27.42266065-34.27832695 6.85566481-13.71133106 0-27.42266213-6.85566479-41.13399319l-34.27832695-61.70098908c13.71133106-6.85566481 27.42266213-13.71133106 47.98965803-27.42266215 68.55665534-47.98965801 130.25764443-109.69064709 171.39163615-185.10296725 6.85566481-6.85566481 6.85566481-20.56699587 6.85566628-34.27832694s0-20.56699587-6.85566628-34.27832838c-41.13399319-75.41232014-95.97931601-137.11330923-171.39163615-185.10296726-75.41232014-47.98965801-157.6803051-75.41232014-246.80395634-75.41232016-34.27832694 0-68.55665534 6.85566481-95.97931748 13.71133107l-47.98965802-61.70098906c-6.85566481-20.56699587-27.42266213-27.42266213-47.989658-27.42266215-6.85566481 0-20.56699587 0-27.42266214 6.85566479-20.56699587 13.71133106-34.27832694 47.98965801-13.71133108 75.41232016l34.27832694 54.84532427c-20.56699587 6.85566481-34.27832694 13.71133106-47.989658 27.42266215-68.55665534 47.98965801-130.25764443 109.69064709-171.39163616 185.10296725-6.85566481 6.85566481-6.85566481 20.56699587-6.85566627 34.27832694s0 20.56699587 6.85566627 34.27832838c41.13399319 75.41232014 95.97931601 137.11330923 164.53597138 185.10296726 75.41232014 47.98965801 157.6803051 75.41232014 246.80395631 75.41232016h6.85566625c34.27832694-6.85566481 68.55665534-13.71133106 95.97931603-20.56699588z m-95.97931603-123.40197963c-89.12365122 0-157.6803051-68.55665534-157.68030655-157.6803051 0-34.27832694 13.71133106-75.41232014 34.27832693-102.83498229l150.8246403 260.51528739h-27.42266068z m123.40197816-54.84532281l-150.82464029-260.51528739h27.42266213c89.12365122 0 157.6803051 68.55665534 157.68030512 157.6803051 0 41.13399319-13.71133106 75.41232014-34.27832696 102.83498229z" fill="#515151" p-id="1441"></path></svg>