<?xml version="1.0" standalone="no"?><!DOCTYPE svg PUBLIC "-//W3C//DTD SVG 1.1//EN" "http://www.w3.org/Graphics/SVG/1.1/DTD/svg11.dtd"><svg t="1565675193228" class="icon" viewBox="0 0 1024 1024" version="1.1" xmlns="http://www.w3.org/2000/svg" p-id="19878" xmlns:xlink="http://www.w3.org/1999/xlink" width="200" height="200"><defs><style type="text/css"></style></defs><path d="M128 832.512H256c31.744 0 63.488-31.744 63.488-64.512V320.512c0-31.744-31.744-63.488-63.488-63.488H128c-31.744 0-63.488 31.744-63.488 63.488V768c-1.024 31.744 31.744 64.512 63.488 64.512z m319.488 0h128c31.744 0 63.488-31.744 63.488-64.512V512c0-31.744-31.744-64.512-63.488-64.512H447.488c-31.744 0-63.488 31.744-63.488 64.512v256c0 31.744 31.744 64.512 63.488 64.512z m320.512 0h128c31.744 0 63.488-31.744 63.488-64.512V63.488c0-31.744-31.744-63.488-63.488-63.488H768c-31.744 0-63.488 31.744-63.488 63.488V768c-1.024 31.744 31.744 64.512 63.488 64.512z m192.512 63.488H63.488c-31.744 0-63.488 31.744-63.488 63.488s31.744 63.488 63.488 63.488h896c31.744 0 63.488-31.744 63.488-63.488 1.024-31.744-30.72-63.488-62.464-63.488z m0 0" fill="" p-id="19879"></path></svg>