<?xml version="1.0" standalone="no"?><!DOCTYPE svg PUBLIC "-//W3C//DTD SVG 1.1//EN" "http://www.w3.org/Graphics/SVG/1.1/DTD/svg11.dtd"><svg t="1565688477199" class="icon" viewBox="0 0 1024 1024" version="1.1" xmlns="http://www.w3.org/2000/svg" p-id="9929" xmlns:xlink="http://www.w3.org/1999/xlink" width="200" height="200"><defs><style type="text/css"></style></defs><path d="M937.48499 729.884019a218.762323 218.762323 0 0 0-47.934396-67.463223 228.428106 228.428106 0 0 0-70.619397-45.764526 230.203454 230.203454 0 0 0-172.800536 0 228.033584 228.033584 0 0 0-70.619397 45.764526A220.537671 220.537671 0 0 0 527.379607 729.884019a201.600626 201.600626 0 0 0 0 164.71284 217.973279 217.973279 0 0 0 118.356532 112.635966 236.713063 236.713063 0 0 0 172.800536 0 221.721236 221.721236 0 0 0 70.619398-45.172743 218.959584 218.959584 0 0 0 47.934395-67.463223 199.430756 199.430756 0 0 0 18.739784-82.455051 193.907451 193.907451 0 0 0-18.345262-82.257789z m-56.022092 47.145351a74.761876 74.761876 0 0 1-11.04661 16.372654c-10.257566 8.87674-21.501437 19.726089-33.731611 31.364481L798.021543 861.062508c-13.019218 12.230175-25.841176 24.263089-37.87409 36.098742S738.843277 919.057209 728.38845 927.144905a27.813785 27.813785 0 0 1-21.106914 8.284957 29.983655 29.983655 0 0 1-22.290481-7.495914c-5.326044-4.537-11.835653-10.257566-19.726088-17.753479s-14.794566-14.991827-22.29048-22.685002l-21.106915-21.501437c-6.70687-6.70687-12.230175-12.427436-16.175393-16.767175-12.821958-13.611001-14.202784-25.446654-3.945218-35.704221l4.931523-4.142478c2.761652-2.367131 5.523305-4.931522 8.087696-7.693175a80.285181 80.285181 0 0 1 8.087696-7.890435l5.128783-4.142479a18.542523 18.542523 0 0 1 15.58361-5.326044 34.323394 34.323394 0 0 1 13.808262 6.50961l9.468523 10.257566c4.339739 4.734261 9.074001 9.468523 13.808262 14.991827s9.074001 10.060305 13.41374 14.400045 7.495914 7.693175 9.665784 9.665783a13.216479 13.216479 0 0 0 13.808262 5.326044 28.011046 28.011046 0 0 0 15.386349-8.284957c13.611001-13.019218 27.813785-26.432959 43.002873-40.438482l46.159047-43.397395a83.835877 83.835877 0 0 1 18.148002-13.611001 17.950741 17.950741 0 0 1 19.726088 1.972609 45.567265 45.567265 0 0 1 9.665784 8.679479c4.931522 5.128783 8.284957 8.284957 9.665783 9.665783a13.216479 13.216479 0 0 1 2.16987 17.358958zM638.240225 63.931267h-63.320744a67.857745 67.857745 0 0 0-19.726089-46.75083A62.531701 62.531701 0 0 0 510.612432 0.01874h-63.518005A61.742657 61.742657 0 0 0 403.499771 17.377698a65.490614 65.490614 0 0 0-17.75348 46.75083h-64.307049v127.825054H638.240225z m-157.808709 64.109788a32.153524 32.153524 0 1 1 31.364481-32.153525 31.759003 31.759003 0 0 1-31.759002 32.350786z m-23.868567 765.372238a256.439152 256.439152 0 0 1-13.611001-82.257789 131.770272 131.770272 0 0 1 0-14.400045 127.825054 127.825054 0 0 0 0-13.611001l4.142479-14.991827H258.118498c-17.358958 0-31.561742 8.679479-43.989178-3.156175a56.613874 56.613874 0 0 1-18.739784-42.805612 55.233048 55.233048 0 0 1 18.739784-42.41109c12.427436-11.638392 26.63022-39.452177 43.989178-39.452178h253.480238a171.814232 171.814232 0 0 1 63.320745-63.912527c32.942568-20.909654 23.079524-57.600179 63.320744-63.912527H258.118498c-17.358958 0-50.893309 11.835653-63.320745 0a96.855095 96.855095 0 0 1 19.726089-72.986528c12.427436-11.638392 26.63022-55.035787 44.186438-55.035787h443.047951c17.556219 0 50.893309 52.471396 63.320744 63.912527s-0.986304 16.569914-0.986304 33.139829a57.994701 57.994701 0 0 1-11.638393 34.717916 65.490614 65.490614 0 0 1-29.983654 22.093219h7.101392a286.422807 286.422807 0 0 1 85.808485 12.624697 310.883157 310.883157 0 0 1 76.537224 25.249393V256.457892a159.978579 159.978579 0 0 0-12.624697-60.559092 128.614098 128.614098 0 0 0-29.786393-39.452177 147.156621 147.156621 0 0 0-41.030265-26.038437 98.630443 98.630443 0 0 0-43.397395-1.775348h-63.320744V256.457892H258.118498V128.041055H194.797753a117.172966 117.172966 0 0 0-52.865917 4.142479 153.074448 153.074448 0 0 0-37.282308 30.378176 167.474492 167.474492 0 0 0-26.432959 39.452177A98.630443 98.630443 0 0 0 68.156264 244.622239v596.319659A87.978355 87.978355 0 0 0 81.175483 887.692728a165.304623 165.304623 0 0 0 32.745307 39.452177 176.351232 176.351232 0 0 0 42.41109 28.011046 75.353659 75.353659 0 0 0 38.268612 5.326044h316.998244c-16.175393-22.29048-46.553569-41.030264-55.430309-67.068702z" p-id="9930"></path></svg>