<?xml version="1.0" standalone="no"?><!DOCTYPE svg PUBLIC "-//W3C//DTD SVG 1.1//EN" "http://www.w3.org/Graphics/SVG/1.1/DTD/svg11.dtd"><svg t="1571046996466" class="icon" viewBox="0 0 1024 1024" version="1.1" xmlns="http://www.w3.org/2000/svg" p-id="2628" xmlns:xlink="http://www.w3.org/1999/xlink" width="200" height="200"><defs><style type="text/css"></style></defs><path d="M442.993132 675.496839H224.170213a37.703788 37.703788 0 0 1-31.713467-35.237185A29.716693 29.716693 0 0 1 221.586152 610.777876h249.9491a310.322144 310.322144 0 0 1 105.711556-107.825787H225.697157c-15.856733 0-25.95806-17.031306-25.958059-32.888039a31.948381 31.948381 0 0 1 29.246863-31.713467h428.719086a31.830924 31.830924 0 0 1 28.894492 23.491457 308.090455 308.090455 0 0 1 178.652529 23.491457V143.650258c0-65.776079-35.237185-111.349505-109.822561-111.349505h-98.899033a86.448561 86.448561 0 0 1 1.526945 16.091648c0 40.757677-29.599236 80.928069-64.718963 80.928068H289.711377c-36.999044 0-66.59828-40.170391-66.59828-80.928068A89.619908 89.619908 0 0 1 224.170213 32.300753H124.683893C44.225654 32.300753 24.49283 77.874179 24.49283 143.650258V795.185811c0 70.47437 28.307205 110.174932 105.711556 110.174933h331.22954a309.382486 309.382486 0 0 1-19.02808-229.746448zM228.985961 261.224999h428.719086a33.005497 33.005497 0 0 1 30.421437 31.713467 36.059386 36.059386 0 0 1-32.535668 32.888039h-429.893659c-15.856733 0-25.95806-17.031306-25.958059-32.888039a31.948381 31.948381 0 0 1 29.246863-31.713467z" p-id="2629"></path><path d="M341.627496 97.019716h199.677383a46.160713 46.160713 0 0 0 42.636994-48.509858A46.160713 46.160713 0 0 0 539.895391 0H341.627496a46.160713 46.160713 0 0 0-43.811566 48.392401A46.27817 46.27817 0 0 0 341.627496 97.019716z" p-id="2630"></path><path d="M743.801236 512.583587A255.704507 255.704507 0 1 0 999.388286 768.170636a255.58705 255.58705 0 0 0-255.58705-255.587049z m164.440197 270.739039l-112.876449 112.993907A21.259768 21.259768 0 0 1 759.18814 880.929629a21.142311 21.142311 0 0 1 6.225236-15.034533l76.699607-76.699606H594.043199a21.259768 21.259768 0 0 1-21.259768-21.142311 21.377226 21.377226 0 0 1 21.259768-21.259769H841.995525l-76.582149-76.582149A21.259768 21.259768 0 0 1 780.565366 634.269333a21.142311 21.142311 0 0 1 15.034532 6.225236l112.87645 112.993907a21.259768 21.259768 0 0 1 0 30.186522z" p-id="2631"></path></svg>