<?xml version="1.0" standalone="no"?><!DOCTYPE svg PUBLIC "-//W3C//DTD SVG 1.1//EN" "http://www.w3.org/Graphics/SVG/1.1/DTD/svg11.dtd"><svg t="1565689193888" class="icon" viewBox="0 0 1260 1024" version="1.1" xmlns="http://www.w3.org/2000/svg" p-id="12692" xmlns:xlink="http://www.w3.org/1999/xlink" width="246.09375" height="200"><defs><style type="text/css"></style></defs><path d="M632.123 841.255L494.277 468.677l-63.803 200.861H0V590.77h378.092l78.77-248.91a36.628 36.628 0 0 1 68.923 0l136.664 369.427 143.36-485.218a36.628 36.628 0 0 1 71.286 6.301l39.385 359.976H1024a39.385 39.385 0 0 1 39.385 39.384A39.385 39.385 0 0 1 1024 671.114H851.102l-27.57-247.336-123.274 416.69a36.628 36.628 0 0 1-68.135 0z" p-id="12693"></path><path d="M1220.923 0H118.153A39.385 39.385 0 0 0 78.77 39.385V512h78.77V78.77h1024v866.46h-1024V590.77h-78.77v393.845A39.385 39.385 0 0 0 118.154 1024h1102.77a39.385 39.385 0 0 0 39.384-39.385V39.385A39.385 39.385 0 0 0 1220.923 0z" p-id="12694"></path></svg>