<?xml version="1.0" standalone="no"?><!DOCTYPE svg PUBLIC "-//W3C//DTD SVG 1.1//EN" "http://www.w3.org/Graphics/SVG/1.1/DTD/svg11.dtd"><svg t="1571047012440" class="icon" viewBox="0 0 1024 1024" version="1.1" xmlns="http://www.w3.org/2000/svg" p-id="2853" xmlns:xlink="http://www.w3.org/1999/xlink" width="200" height="200"><defs><style type="text/css"></style></defs><path d="M506.39 1016.102c-278.429 0-499.797-221.367-499.797-499.796C6.593 237.833 227.961 16.51 506.39 16.51c278.474 0 499.797 221.323 499.797 499.797 0 278.429-221.323 499.796-499.797 499.796z m0-942.487c-242.754 0-435.503 199.915-435.503 435.547 0 235.611 199.892 435.547 435.503 435.547 235.61 0 435.548-199.935 435.548-435.547 0-235.632-192.793-435.547-435.548-435.547z" fill="#333333" p-id="2854"></path><path d="M440.987 310.58h126.104c7.897 0 14.287-6.523 14.287-14.598 0-8.097-6.39-14.62-14.287-14.62H440.987c-7.899 0-14.332 6.523-14.332 14.62 0 8.075 6.433 14.598 14.332 14.598z m130.94 73.101c7.897 2.085 13.71 9.207 13.71 17.683 0 10.116-8.297 18.303-18.414 18.303H445.646c-10.161 0-18.46-8.187-18.46-18.303 0-8.475 5.858-15.598 13.756-17.683v-5.435h-72.77v343.632h276.566V378.246h-72.813v5.435h0.002z m133.69 399.074H307.207V317.324h49.208c8.918-38.048 36.34-67.466 78.27-67.466H572.59c41.886 0 73.345 29.418 83.729 67.466h49.295v465.43h0.001z m0 0" fill="#333333" p-id="2855"></path></svg>