<?xml version="1.0" standalone="no"?><!DOCTYPE svg PUBLIC "-//W3C//DTD SVG 1.1//EN" "http://www.w3.org/Graphics/SVG/1.1/DTD/svg11.dtd"><svg t="1571046939242" class="icon" viewBox="0 0 1024 1024" version="1.1" xmlns="http://www.w3.org/2000/svg" p-id="1216" xmlns:xlink="http://www.w3.org/1999/xlink" width="200" height="200"><defs><style type="text/css"></style></defs><path d="M511.2 116c-220.8 0-396 175.2-396 396s176 396.8 396 396.8c220.8 0 396.8-175.2 396.8-396.8 0-220.8-176-396-396.8-396z m0 590.4c-124.8 0-226.4-169.6-226.4-169.6s27.2-44.8 70.4-88.8l63.2 70.4c-0.8 6.4-1.6 12-1.6 18.4 0 58.4 42.4 106.4 94.4 106.4 6.4 0 12-0.8 17.6-2.4l46.4 51.2c-20 8.8-41.6 14.4-64 14.4z m142.4 24.8l-48.8-54.4-44.8-49.6-44-48.8c-1.6 0-3.2 0.8-4.8 0.8-20.8 0-37.6-19.2-37.6-42.4 0-1.6 0-3.2 0.8-4.8l-95.2-105.6-42.4-47.2 32.8-36 48.8 54.4 44.8 49.6 44 48.8c1.6 0 3.2-0.8 4.8-0.8 20.8 0 37.6 19.2 37.6 42.4 0 1.6 0 3.2-0.8 4.8l137.6 152.8c-0.8-0.8-32.8 36-32.8 36z m14.4-105.6l-63.2-70.4c0.8-6.4 1.6-12 1.6-18.4 0-58.4-42.4-106.4-94.4-106.4-5.6 0-12 0.8-17.6 2.4l-46.4-51.2c20-8.8 41.6-14.4 64-14.4 124.8 0 226.4 169.6 226.4 169.6s-27.2 44.8-70.4 88.8z" fill="#3C506B" p-id="1217"></path></svg>