<?xml version="1.0" standalone="no"?><!DOCTYPE svg PUBLIC "-//W3C//DTD SVG 1.1//EN" "http://www.w3.org/Graphics/SVG/1.1/DTD/svg11.dtd"><svg t="1571047002670" class="icon" viewBox="0 0 1024 1024" version="1.1" xmlns="http://www.w3.org/2000/svg" p-id="2741" xmlns:xlink="http://www.w3.org/1999/xlink" width="200" height="200"><defs><style type="text/css"></style></defs><path d="M716.576 960l-563.2 0C139.616 960 128 944.352 128 925.824L128 98.208C128 79.648 139.616 64 153.376 64l717.248 0C884.384 64 896 79.648 896 98.208l0 352.96c0 17.664 14.336 32 32 32s32-14.336 32-32L960 98.208C960 44.032 919.904 0 870.624 0L153.376 0C104.096 0 64 44.032 64 98.208l0 827.616C64 979.968 104.096 1024 153.376 1024l563.2 0c17.632 0 32-14.336 32-32S734.176 960 716.576 960zM800 256c0-17.664-14.336-32-32-32L256 224C238.336 224 224 238.336 224 256s14.336 32 32 32l512 0C785.664 288 800 273.664 800 256zM666.656 512c0-17.664-14.336-32-32-32L256 480c-17.664 0-32 14.336-32 32s14.336 32 32 32l378.656 0C652.32 544 666.656 529.664 666.656 512zM256 736c-17.664 0-32 14.336-32 32s14.336 32 32 32l96 0c17.664 0 32-14.336 32-32s-14.336-32-32-32L256 736zM528 719.2c0 21.248 14.176 35.424 35.424 35.424l340.096 0-116.896 116.896c-7.104 7.104-10.624 17.728-10.624 24.832 0 7.104 3.52 17.728 10.624 24.8 14.176 14.144 35.424 14.144 49.632 0l177.12-177.184c14.144-14.176 14.144-35.424 0-49.632l-177.12-177.12c-14.176-14.112-35.424-14.112-49.632 0-14.144 14.176-14.144 35.424 0 49.6l116.896 116.928L563.424 683.744C542.176 683.776 528 697.952 528 719.2z" p-id="2742"></path></svg>