<?xml version="1.0" standalone="no"?><!DOCTYPE svg PUBLIC "-//W3C//DTD SVG 1.1//EN" "http://www.w3.org/Graphics/SVG/1.1/DTD/svg11.dtd"><svg t="1565688296448" class="icon" viewBox="0 0 1137 1024" version="1.1" xmlns="http://www.w3.org/2000/svg" p-id="8497" xmlns:xlink="http://www.w3.org/1999/xlink" width="222.0703125" height="200"><defs><style type="text/css"></style></defs><path d="M630.24600284 717.92939523H27.87720731c-26.69625586 0-45.75185883-22.87592941-45.75185882-49.57218648V31.69753376c0-26.69625586 19.05560295-49.57218528 45.75185882-49.57218527h1029.37080627c26.69625586 0 45.75185883 22.87592941 45.75185881 49.57218527V348.14022269c34.29088066 11.41495125 64.80746299 26.69625586 87.68339241 45.75185882v-362.24057587C1190.6832648-48.34520573 1129.69612827-109.37837037 1053.42768711-109.37837037H24.10290896C-48.39123385-109.37837037-109.37837037-44.57090738-109.37837037 31.69753376v632.88537665c0 80.04273949 60.98713653 141.02987602 137.25557768 141.02987601H645.48127934c-11.41495125-26.69625586-15.23527649-57.16681008-15.2352765-87.68339119z m175.36678358 297.34105665H107.91994678c-19.05560295 0-38.11120711 19.10163107-38.11120589 45.79788695 0 26.69625586 15.23527649 45.75185883 38.11120589 45.75186003H805.65881454c19.05560295 0 38.15723523-19.05560295 38.15723524-45.75186003 0-26.69625586-19.10163107-45.75185883-38.15723524-45.75185883z" fill="#108EE9" p-id="8498"></path><path d="M687.41281292 271.87178033H550.20326335l76.22241303-175.36678358h-114.37964826l-118.15394661 270.64480078h114.33362015l-76.22241303 236.39994945 255.4555524-331.67796665z m266.91653055 304.98171077c-57.2128382 0-99.14437055 41.97756048-99.14437055 99.14437056s41.93153358 99.14437055 99.14437055 99.14437177c57.16681008 0 99.09834365-41.97756048 99.09834364-99.14437177a98.45395122 98.45395122 0 0 0-99.09834364-99.14437056z m0 133.48127934c-19.10163107 0-34.33690878-11.46097937-34.33690878-34.33690878s11.46097937-34.29088066 34.33690878-34.29088066 34.29088066 11.41495125 34.29088067 34.29088066-15.23527649 34.29088066-34.29088067 34.29088067z" fill="#108EE9" p-id="8499"></path><path d="M1236.43512362 592.08876761l-34.29088067 7.6406529c-11.46097937-38.11120711-30.51658233-68.58176133-57.21283818-99.09834365l22.87593062-26.69625586a31.39111412 31.39111412 0 0 0-3.82032646-45.75185882 31.39111412 31.39111412 0 0 0-45.75186003 3.82032645l-22.87592941 26.69625587c-34.29088066-22.87592941-72.40208657-38.15723523-114.37964827-41.93153358v-34.33690757c0-19.05560295-11.41495125-34.29088066-34.29088067-34.29088066s-26.69625586 11.41495125-26.69625586 30.47055421v34.33690757c-41.93153358 3.82032645-76.22241302 19.05560295-110.5593218 41.88550545l-26.69625588-30.4705542c-11.41495125-11.41495125-34.29088066-15.23527649-45.75185881-3.82032646-11.41495125 11.46097937-15.23527649 34.33690878-3.82032647 45.75186003l22.87592941 30.51658112c-26.69625586 26.69625586-45.75185883 60.98713653-57.16681007 99.14437177l-34.33690756-7.64065292c-19.05560295-3.82032645-38.11120711 11.41495125-38.11120713 26.69625587-3.82032645 19.05560295 11.46097937 38.11120711 26.69625588 38.11120713l34.29088066 7.6406529v15.2352765c0 34.29088066 7.64065292 72.44811469 19.10163106 102.91866889l-30.51658232 15.28130583c-15.23527649 11.41495125-22.87592941 30.47055421-11.46097815 45.75185882 7.64065292 11.41495125 19.10163107 15.23527649 30.5165811 15.23527772 7.64065292 0 11.46097937-3.82032645 15.23527772-3.82032647l30.51658232-19.05560294c22.87592941 30.51658233 53.39251173 57.16681008 87.6833924 72.44811469l-11.41495126 30.47055419c-7.64065292 15.28130461 3.82032645 38.15723523 19.05560296 41.9775605 3.82032645 3.77429834 7.64065292 3.77429834 11.41495125 3.77429833 11.46097937 0 26.69625586-7.5946248 34.33690878-22.87592942l11.41495005-30.47055419c19.05560295 3.82032645 38.15723523 7.5946248 57.21283818 7.59462478 22.87592941 0 41.88550546-3.77429834 60.98713654-7.59462478l11.46097937 30.47055419c3.77429834 11.46097937 15.18924959 22.87592941 30.47055419 22.87592942 3.82032645 0 7.64065292 0 11.46097817-3.77429833 15.23527649-7.64065292 26.69625586-26.69625586 19.05560417-41.9775605l-11.46097937-30.47055419a256.83639349 256.83639349 0 0 0 83.90909406-72.44811469l30.4705542 19.05560294a28.81354562 28.81354562 0 0 0 15.28130461 3.82032647c11.41495125 0 22.87592941-7.64065292 30.47055421-15.23527772 7.64065292-15.28130461 3.82032645-38.15723523-11.41495005-45.75185882l-30.51658231-15.28130583a291.08124604 291.08124604 0 0 0 19.05560294-102.91866889v-15.2352765l34.33690879-7.6406529c15.23527649-3.82032645 30.47055421-22.87592941 26.69625586-38.11120713 3.77429834-15.28130461-15.28130461-26.69625586-34.33690877-22.87592941z m-83.86306595 83.90909405c0 22.87592941-3.82032645 45.75185883-15.28130461 68.58176133-11.41495125 34.33690878-34.29088066 64.8534911-64.80746298 87.72942052l-3.82032646 3.82032524h-3.77429834l-3.82032645 3.82032645s-3.82032645 0-3.82032525 3.82032646c0 0-3.82032645 0-3.82032647 3.77429834a199.30135847 199.30135847 0 0 1-60.98713652 22.87592941c-11.46097937 3.82032645-26.69625586 3.82032645-38.11120712 3.82032645-11.46097937 0-22.87592941 0-38.15723402-3.82032645a168.46258054 168.46258054 0 0 1-60.98713653-22.87592941c-3.82032645 0-3.82032645-3.77429834-7.64065292-3.77429834-34.29088066-22.87592941-64.80746299-57.2128382-80.08876761-99.14437056a215.87144916 215.87144916 0 0 1-11.41495125-68.62778944v-3.82032646c0-22.87592941 3.82032645-45.75185883 11.46097937-64.80746177 3.82032645-11.41495125 11.41495125-22.87592941 15.2352765-34.29088066 0-3.82032645 3.82032645-3.82032645 3.82032646-7.64065292 0 0 0-3.82032645 3.82032645-3.82032645 0 0 0-3.82032645 3.82032646-3.82032646l3.82032646-3.82032646 3.77429833-3.77429713 3.82032525-3.82032645c15.28130461-15.28130461 30.51658233-30.51658233 49.5721865-41.93153358 0 0 3.82032645 0 3.82032645-3.82032646a168.46258054 168.46258054 0 0 1 60.98713532-22.8759294c11.46097937-3.82032645 22.87592941-3.82032645 34.33690878-3.82032646 11.41495125 0 22.87592941 0 34.29088067 3.82032646 26.69625586 3.82032645 49.57218528 11.41495125 68.62778944 26.69625586 19.05560295 11.41495125 34.29088066 26.69625586 49.57218528 41.88550546 0 0 0 3.86635457 3.82032645 3.86635457l3.77429834 3.77429713 3.82032525 3.82032646 3.82032645 3.82032646c0 3.82032645 3.82032645 3.82032645 3.82032645 7.64065291 7.64065292 11.41495125 11.41495125 22.87592941 15.23527772 34.29088067 7.64065292 26.69625586 11.46097937 49.57218528 11.46097815 72.44811468z" fill="#108EE9" p-id="8500"></path></svg>