<?xml version="1.0" standalone="no"?><!DOCTYPE svg PUBLIC "-//W3C//DTD SVG 1.1//EN" "http://www.w3.org/Graphics/SVG/1.1/DTD/svg11.dtd"><svg t="1571046929662" class="icon" viewBox="0 0 1024 1024" version="1.1" xmlns="http://www.w3.org/2000/svg" p-id="1104" xmlns:xlink="http://www.w3.org/1999/xlink" width="200" height="200"><defs><style type="text/css"></style></defs><path d="M773.371 324.365l90.55-96.844-93.317-87.253-115.27 123.281c-44.357-16.02-92.648-25.942-144.25-25.942-268.546 0-447.576 268.546-447.576 268.546s71.256 106.873 191.284 185.778l-98.991 105.872 93.317 87.254L374.154 751.33c42.334 14.5 88.154 23.365 136.93 23.365 268.545 0 447.576-268.542 447.576-268.542s-68.888-103.321-185.289-181.788zM332.994 505.21c0-98.332 79.713-178.089 178.09-178.089 25.254 0 49.27 5.264 71.03 14.737l-69.937 74.799c-0.512-0.009-1.024-0.02-1.539-0.02-49.193 0-89.07 39.876-89.07 89.067 0 2.532 0.112 5.038 0.32 7.517l-69.016 73.812c-12.699-24.503-19.878-52.324-19.878-81.823z m178.09 178.091c-22.071 0-43.196-4.025-62.7-11.362l72.73-77.784c42.781-5.013 76.299-40.343 78.476-83.932l73.645-78.761c10.233 22.47 15.938 47.44 15.938 73.748 0 98.378-79.714 178.091-178.09 178.091z" fill="" p-id="1105"></path></svg>