<?xml version="1.0" standalone="no"?><!DOCTYPE svg PUBLIC "-//W3C//DTD SVG 1.1//EN" "http://www.w3.org/Graphics/SVG/1.1/DTD/svg11.dtd"><svg t="1569722747400" class="icon" viewBox="0 0 1024 1024" version="1.1" xmlns="http://www.w3.org/2000/svg" p-id="1344" xmlns:xlink="http://www.w3.org/1999/xlink" width="200" height="200"><defs><style type="text/css"></style></defs><path d="M303.020408 929.959184H167.183673c-6.965986 0-13.931973-6.965986-13.931972-13.931973V107.972789c0-6.965986 6.965986-13.931973 13.931972-13.931973h689.632654c6.965986 0 13.931973 6.965986 13.931972 13.931973v438.857143l59.210885 27.863946V107.972789c0-41.795918-34.829932-76.62585-76.625851-76.62585H167.183673C125.387755 31.346939 90.557823 66.176871 90.557823 107.972789v808.054422c0 41.795918 34.829932 76.62585 76.62585 76.62585h135.836735v-62.693877z m487.619048-466.721089c0-80.108844-62.693878-139.319728-139.319728-139.319728-80.108844 0-139.319728 62.693878-139.319728 139.319728 0 80.108844 62.693878 139.319728 139.319728 139.319728 76.62585 3.482993 139.319728-62.693878 139.319728-139.319728z m48.761905 188.081633h-27.863946l-146.285714 299.537415 55.727891-275.156463-69.659864-69.659864-73.142857 73.142857 55.727891 275.156463-146.285714-299.537415h-27.863946c-94.040816 0-94.040816 62.693878-94.040816 139.319728v198.530612h567.727891v-198.530612c0-80.108844 0-142.802721-94.040816-142.802721zM247.292517 188.081633h525.931973V243.809524H247.292517V188.081633z m0 142.802721h181.115646v59.210884H247.292517V330.884354z m0 149.768707H449.306122v55.727891H247.292517v-55.727891z m0 0" p-id="1345"></path></svg>