<?xml version="1.0" standalone="no"?><!DOCTYPE svg PUBLIC "-//W3C//DTD SVG 1.1//EN" "http://www.w3.org/Graphics/SVG/1.1/DTD/svg11.dtd"><svg t="1565688053976" class="icon" viewBox="0 0 1024 1024" version="1.1" xmlns="http://www.w3.org/2000/svg" p-id="5134" xmlns:xlink="http://www.w3.org/1999/xlink" width="200" height="200"><defs><style type="text/css"></style></defs><path d="M217.6 793.6c-51.2-44.8-89.6-108.8-108.8-172.8l-32 12.8c19.2 70.4 64 134.4 115.2 192 115.2 115.2 281.6 160 435.2 121.6l-6.4-38.4c-147.2 32-300.8-6.4-403.2-115.2zM217.6 198.4c51.2-57.6 166.4-121.6 300.8-121.6 140.8 0 249.6 64 300.8 115.2 57.6 57.6 96 121.6 115.2 198.4l32-6.4c-19.2-83.2-64-160-121.6-217.6-57.6-57.6-166.4-128-326.4-128-166.4 0-268.8 70.4-326.4 128-64 64-108.8 140.8-128 217.6l38.4 6.4c19.2-70.4 57.6-140.8 115.2-192zM928 518.4L1024 608V422.4zM0 422.4v185.6l96-89.6z" p-id="5135"></path><path d="M812.8 531.2c12.8 0 19.2-6.4 19.2-19.2 0-12.8-6.4-19.2-19.2-19.2h-64c-6.4 0-12.8 6.4-12.8 6.4l-32 64-57.6-134.4c0-6.4-6.4-12.8-19.2-12.8-6.4 0-12.8 6.4-19.2 12.8L512 659.2 409.6 313.6c0-6.4-6.4-12.8-19.2-12.8-6.4 0-12.8 6.4-12.8 12.8L300.8 499.2h-57.6c-12.8 0-19.2 6.4-19.2 12.8 0 12.8 6.4 19.2 19.2 19.2h70.4c6.4 0 12.8-6.4 19.2-12.8l64-147.2 108.8 345.6c0 6.4 6.4 12.8 19.2 12.8 6.4 0 12.8-6.4 19.2-12.8L640 480l57.6 128c0 6.4 6.4 12.8 12.8 12.8s12.8-6.4 19.2-6.4l38.4-76.8h44.8zM236.8 684.8l-25.6 19.2c-6.4-12.8-12.8-25.6-25.6-38.4l25.6-12.8v-6.4l-25.6 12.8-19.2-38.4 25.6-12.8v-6.4l-44.8 19.2v6.4C192 723.2 256 787.2 320 825.6l6.4 6.4c121.6 64 249.6 44.8 268.8 38.4h6.4l-12.8-44.8h-6.4l6.4 32c-6.4 0-25.6 6.4-51.2 6.4v-25.6h-6.4v25.6h-51.2v-19.2h-6.4v19.2c-12.8 0-32-6.4-44.8-6.4l6.4-19.2h-6.4l-6.4 19.2c-12.8-12.8-25.6-19.2-38.4-25.6l6.4-19.2H384l-12.8 19.2-38.4-19.2 25.6-44.8h-6.4l-25.6 44.8c-12.8-6.4-25.6-12.8-38.4-25.6l19.2-19.2-6.4-6.4-19.2 19.2c-12.8-12.8-25.6-19.2-38.4-32l19.2-19.2-6.4-6.4-19.2 19.2c-6.4-12.8-19.2-19.2-25.6-32l25.6-25.6zM838.4 403.2v6.4l44.8-12.8v-6.4c-108.8-300.8-390.4-275.2-428.8-275.2l-6.4 6.4 6.4 51.2h6.4v-38.4H512v25.6h6.4v-25.6c12.8 0 32 0 51.2 6.4l-6.4 25.6h6.4l6.4-25.6c12.8 0 32 6.4 44.8 12.8l-6.4 19.2h6.4l6.4-19.2c12.8 6.4 32 12.8 44.8 19.2l-12.8 19.2 6.4 6.4 12.8-25.6 38.4 19.2-25.6 44.8 6.4 6.4 25.6-44.8c12.8 6.4 25.6 19.2 38.4 25.6l-19.2 25.6V256l19.2-25.6c12.8 12.8 25.6 19.2 32 32l-19.2 19.2 6.4 6.4 19.2-19.2c6.4 12.8 19.2 25.6 25.6 38.4l-19.2 12.8 6.4 6.4 19.2-12.8 19.2 38.4-25.6 12.8v6.4l25.6-12.8c6.4 12.8 12.8 25.6 12.8 38.4l-25.6 6.4zM934.4 697.6h-179.2c-12.8 0-25.6 12.8-25.6 25.6v224h76.8v-96h25.6l12.8-44.8H768c-6.4 0-6.4 0-6.4-6.4l115.2-89.6h6.4l-12.8 64H947.2c6.4 0 6.4 0 6.4 6.4l-89.6 64h70.4c32 0 57.6-25.6 57.6-57.6v-32c0-32-25.6-57.6-57.6-57.6z" p-id="5136"></path></svg>