<?xml version="1.0" standalone="no"?><!DOCTYPE svg PUBLIC "-//W3C//DTD SVG 1.1//EN" "http://www.w3.org/Graphics/SVG/1.1/DTD/svg11.dtd"><svg t="1565688191566" class="icon" viewBox="0 0 1024 1024" version="1.1" xmlns="http://www.w3.org/2000/svg" p-id="7090" xmlns:xlink="http://www.w3.org/1999/xlink" width="200" height="200"><defs><style type="text/css"></style></defs><path d="M930.823 813.782L756.652 639.534l23.228-23.271-23.211-23.249-69.633 69.714-116.152-116.192 139.552-139.65c18.577 6.617 38.006 9.96 57.946 9.96 45.985 0 89.235-17.907 121.777-50.431 50.188-50.265 64.427-124.937 36.273-190.274l-9.584-22.245-74.841 74.904-60.259 0.816 0.795-57.506 76.288-76.327-22.163-9.618c-21.749-9.412-44.866-14.183-68.667-14.183-46.003 0-89.253 17.928-121.723 50.454-47.618 47.622-62.921 117.178-40.396 179.988L466.388 441.998 268.963 244.5l23.249-23.229L164.521 93.5l-69.73 69.675 127.75 127.785 23.193-23.229 197.42 197.497-139.499 139.575c-18.646-6.672-38.15-10.04-58.152-10.04-45.985 0-89.235 17.948-121.74 50.476-50.302 50.301-64.52 125.084-36.213 190.498l9.618 22.185 76.288-76.344 57.45-0.761-0.817 60.302L155.247 916l22.24 9.562c21.689 9.37 44.691 14.125 68.397 14.125 46.007 0 89.236-17.911 121.723-50.453 47.563-47.585 62.867-117.066 40.492-179.763l139.574-139.668 116.136 116.17-69.691 69.731 23.228 23.229 23.216-23.229L814.71 929.952c15.496 15.53 36.138 24.064 58.058 24.064s42.545-8.534 58.058-24.064c32.014-32.013 31.992-84.137-0.003-116.17zM141.272 163.176l23.229-23.215 81.251 81.307-23.211 23.232-81.269-81.324z m232.512 548.786c22.773 52.907 11.237 113.379-29.409 154.043-26.31 26.326-61.267 40.814-98.508 40.814-10.686 0-21.213-1.183-31.465-3.575l48.325-48.341 1.444-107.411-104.518 1.406-49.88 49.904c-10.973-46.537 2.488-95.621 37.201-130.316 26.328-26.366 61.306-40.854 98.529-40.854 19.296 0 37.984 3.878 55.625 11.521l10.247 4.434 333.249-333.426-4.449-10.262c-22.902-52.963-11.388-113.49 29.314-154.209 26.311-26.348 61.289-40.835 98.512-40.835 10.798 0 21.407 1.214 31.747 3.612l-49.846 49.862-1.444 104.616L855.81 261.5l48.362-48.384c10.836 46.443-2.663 95.473-37.24 130.109-26.349 26.31-61.326 40.813-98.566 40.813-19.239 0-37.891-3.859-55.472-11.425l-10.229-4.429-333.288 333.553 4.407 10.225z m533.828 194.763c-9.313 9.293-21.688 14.448-34.847 14.448-13.175 0-25.531-5.155-34.847-14.448L663.771 732.476l69.652-69.69 174.15 174.247c19.241 19.218 19.241 50.468 0.039 69.692z" p-id="7091"></path></svg>