<?xml version="1.0" standalone="no"?><!DOCTYPE svg PUBLIC "-//W3C//DTD SVG 1.1//EN" "http://www.w3.org/Graphics/SVG/1.1/DTD/svg11.dtd"><svg t="1565674908860" class="icon" viewBox="0 0 1024 1024" version="1.1" xmlns="http://www.w3.org/2000/svg" p-id="13988" xmlns:xlink="http://www.w3.org/1999/xlink" width="200" height="200"><defs><style type="text/css"></style></defs><path d="M691.2 352v-64a179.2 179.2 0 1 0-358.4 0v64H256v-64a256 256 0 1 1 512 0v64h-76.8z m-358.4 0h358.4v-64a179.2 179.2 0 1 0-358.4 0v64zM256 352v-64a256 256 0 1 1 512 0v64h64a64 64 0 0 1 64 64v320a256 256 0 0 1-256 256H384a256 256 0 0 1-256-256v-320a64 64 0 0 1 64-64h64z m-51.2 76.8v307.2A179.2 179.2 0 0 0 384 915.2h256a179.2 179.2 0 0 0 179.2-179.2V428.8H204.8zM512 800a128 128 0 1 1 0-256 128 128 0 0 1 0 256z m0-76.8a51.2 51.2 0 1 0 0-102.4 51.2 51.2 0 0 0 0 102.4z" p-id="13989"></path></svg>