<?xml version="1.0" standalone="no"?><!DOCTYPE svg PUBLIC "-//W3C//DTD SVG 1.1//EN" "http://www.w3.org/Graphics/SVG/1.1/DTD/svg11.dtd"><svg t="1565688559342" class="icon" viewBox="0 0 1024 1024" version="1.1" xmlns="http://www.w3.org/2000/svg" p-id="11160" xmlns:xlink="http://www.w3.org/1999/xlink" width="200" height="200"><defs><style type="text/css"></style></defs><path d="M524.225 329.647c4.493 0 7.465-3.059 7.465-7.558v-14.931c0-4.493-2.965-7.558-7.465-7.558s-7.465 3.059-7.465 7.558v14.931c0 4.493 2.965 7.558 7.465 7.558zM454.704 346.113c1.532 0 2.253-0.707 3.775-0.707 3.682-2.253 5.212-6.747 2.965-10.526l-7.465-12.775c-2.253-3.682-6.747-5.212-10.526-2.965s-5.212 6.747-2.965 10.526l7.465 12.683c1.532 2.253 4.493 3.775 6.747 3.775zM406.781 391.803c2.965 0 5.212-0.707 6.747-3.682 1.437-3.775 0.707-8.287-3.059-10.526l-12.683-7.465c-3.775-1.532-8.982-0.803-10.526 2.965s-0.707 8.287 2.965 10.526l12.775 7.465c1.532 0.707 2.253 0.707 3.775 0.707zM396.784 457.007c4.493 0 7.558-2.965 7.558-7.465s-3.059-7.465-7.558-7.465h-14.931c-4.493 0-7.558 2.965-7.558 7.465s3.059 7.465 7.558 7.465h14.931zM666.606 457.007c4.493 0 7.558-2.965 7.558-7.465s-3.059-7.465-7.558-7.465h-14.931c-4.493 0-7.558 2.965-7.558 7.465s3.059 7.465 7.558 7.465h14.931zM628.556 392.619c1.532 0 3.059-0.803 3.775-0.803l12.775-7.465c3.682-2.253 5.212-6.747 2.965-10.526-2.253-3.682-6.747-5.212-10.526-2.965l-12.683 7.465c-3.775 2.253-5.302 6.747-3.059 10.526 1.532 2.253 4.493 3.775 6.747 3.775zM581.345 345.393c2.253 0 4.493-1.532 6.747-3.775l7.558-12.775c1.437-3.682 0.707-8.189-3.059-10.434-3.682-1.532-8.189-0.803-10.434 2.965l-7.558 12.775c-1.437 3.682-0.707 8.189 3.059 10.434 1.437 0.803 2.253 0.803 3.682 0.803zM524.951 462.305c-6.747 0-11.97-5.302-11.97-12.055s5.212-11.97 11.97-11.97 12.055 5.212 12.055 11.97-5.302 12.055-12.055 12.055zM608.958 400.081c-2.253-3.775-6.747-4.493-10.526-2.965l-56.211 32.188c-4.493-3.775-10.526-6.747-17.269-6.747-14.931 0-26.977 11.97-26.977 26.977s12.055 26.977 26.977 26.977c15.008 0 26.977-11.97 26.977-26.977 0-2.965-0.707-5.212-1.437-7.465l55.401-32.291c3.775-1.437 5.302-5.938 3.059-9.717zM424.574 580.666c23.922-30.682 60.708-48.656 99.643-48.656s75.731 17.991 99.643 48.656c-27.693 21.045-62.151 33.737-99.643 33.737s-71.947-12.683-99.643-33.737zM359.375 449.534c0-90.651 74.199-164.846 164.846-164.846s164.846 74.199 164.846 164.846c0 47.94-20.958 91.471-53.151 121.418-26.977-33.737-68.25-53.977-111.7-53.977s-84.72 20.238-111.7 53.977c-32.188-29.953-53.151-73.474-53.151-121.418zM704.098 449.534c0-98.93-80.948-179.867-179.867-179.867s-179.867 80.948-179.867 179.867c0 55.493 25.444 104.959 65.204 137.868v0.803c31.478 25.444 71.223 41.195 114.671 41.195s83.188-15.743 114.671-41.195c39.755-33.737 65.204-83.188 65.204-138.695zM128.511 161.744v71.947h26.977v413.713h-44.969v53.977h152.879v89.938h-287.794v17.991h1079.227v-17.991h-269.807v-89.938h143.903v-53.977h-44.969v-413.713h26.977v-71.947h-782.455zM173.47 233.697h692.514v413.713h-692.514v-413.713zM146.505 179.714h746.477v35.986h-746.477v-35.986zM281.41 701.357h17.991v89.938h-17.991v-89.938zM317.365 701.357h413.713v89.938h-413.713v-89.938zM749.070 701.357h17.991v89.938h-17.991v-89.938zM128.511 665.39h782.455v17.991h-782.455v-17.991zM101.532 845.265v17.991h836.407v-17.991h-836.407z" fill="" p-id="11161"></path></svg>