<?xml version="1.0" standalone="no"?><!DOCTYPE svg PUBLIC "-//W3C//DTD SVG 1.1//EN" "http://www.w3.org/Graphics/SVG/1.1/DTD/svg11.dtd"><svg t="1565688583642" class="icon" viewBox="0 0 1024 1024" version="1.1" xmlns="http://www.w3.org/2000/svg" p-id="11278" xmlns:xlink="http://www.w3.org/1999/xlink" width="200" height="200"><defs><style type="text/css"></style></defs><path d="M825.681013 0H198.318987C92.03038 0 6.481013 85.549367 6.481013 191.837975v627.362025c0 103.696203 85.549367 191.837975 191.837974 191.837975h259.240507c20.739241 0 36.293671-15.55443 36.293671-36.293671s-15.55443-36.293671-36.293671-36.293671h-259.240507c-64.810127 0-119.250633-51.848101-119.250633-119.250633V191.837975c0-64.810127 51.848101-116.658228 119.250633-116.658228h627.362026c64.810127 0 119.250633 51.848101 119.250633 116.658228V518.481013c-20.739241-12.962025-46.663291-20.739241-75.179747-20.739241h-121.843038c-132.212658 0-241.093671 106.288608-241.093671 238.501266v163.321519c0 67.402532 54.440506 121.843038 121.843038 121.843038h114.065823c150.359494 0 274.794937-124.435443 274.794936-274.794937V191.837975C1017.518987 85.549367 929.377215 0 825.681013 0z m-82.956962 948.820253H628.658228c-25.924051 0-49.255696-20.739241-49.255696-49.255696v-163.321519c0-90.734177 75.179747-165.913924 165.913924-165.913924h121.843038c41.478481 0 75.179747 33.701266 75.179747 75.179747v101.103797c0 111.473418-90.734177 202.207595-199.61519 202.207595z" fill="#221714" p-id="11279"></path><path d="M817.903797 604.03038h-75.179746l-75.179747 176.283544h72.587342L690.875949 933.265823l165.913924-215.16962h-88.141772zM198.318987 251.463291v505.518987c0 12.962025 10.36962 23.331646 23.331646 23.331646s23.331646-10.36962 23.331645-23.331646V251.463291c0-12.962025-10.36962-23.331646-23.331645-23.331645s-23.331646 10.36962-23.331646 23.331645zM390.156962 251.463291V622.177215c0 12.962025 10.36962 23.331646 23.331646 23.331646s23.331646-10.36962 23.331645-23.331646V251.463291c0-12.962025-10.36962-23.331646-23.331645-23.331645s-23.331646 10.36962-23.331646 23.331645zM584.587342 251.463291V466.632911c0 12.962025 10.36962 23.331646 23.331645 23.331646s23.331646-10.36962 23.331646-23.331646V251.463291c0-12.962025-10.36962-23.331646-23.331646-23.331645s-23.331646 10.36962-23.331645 23.331645zM776.425316 251.463291v132.212658c0 12.962025 10.36962 23.331646 23.331646 23.331646s23.331646-10.36962 23.331646-23.331646V251.463291c0-12.962025-10.36962-23.331646-23.331646-23.331645s-23.331646 10.36962-23.331646 23.331645z" fill="#221714" p-id="11280"></path><path d="M221.650633 160.729114m-36.293671 0a36.293671 36.293671 0 1 0 72.587342 0 36.293671 36.293671 0 1 0-72.587342 0Z" fill="#221714" p-id="11281"></path><path d="M416.081013 160.729114m-36.293671 0a36.293671 36.293671 0 1 0 72.587342 0 36.293671 36.293671 0 1 0-72.587342 0Z" fill="#221714" p-id="11282"></path><path d="M607.918987 160.729114m-36.293671 0a36.293671 36.293671 0 1 0 72.587342 0 36.293671 36.293671 0 1 0-72.587342 0Z" fill="#221714" p-id="11283"></path><path d="M802.349367 160.729114m-36.293671 0a36.293671 36.293671 0 1 0 72.587342 0 36.293671 36.293671 0 1 0-72.587342 0Z" fill="#221714" p-id="11284"></path></svg>