<?xml version="1.0" standalone="no"?><!DOCTYPE svg PUBLIC "-//W3C//DTD SVG 1.1//EN" "http://www.w3.org/Graphics/SVG/1.1/DTD/svg11.dtd"><svg t="1565687925755" class="icon" viewBox="0 0 1024 1024" version="1.1" xmlns="http://www.w3.org/2000/svg" p-id="4407" xmlns:xlink="http://www.w3.org/1999/xlink" width="200" height="200"><defs><style type="text/css"></style></defs><path d="M869.01 88.003H154.334C105.009 88.003 65 128.842 65 179.125v455.863c0 50.28 40.01 91.118 89.334 91.118H869.01c49.323 0 89.334-40.838 89.334-91.184V179.125c0-50.283-40.011-91.122-89.334-91.122zM585.308 789.917H438.1s-29.546 85.057-117.859 85.057v42.563h382.863v-42.563c-88.378 0-117.795-85.057-117.795-85.057zM480.43 569.319l-64.206 64.177-64.238-64.177-128.447-128.455 64.207-64.202L416.2 505.068l319.376-319.35 64.228 64.205L480.43 569.319z" fill="" p-id="4408"></path></svg>