<?xml version="1.0" standalone="no"?><!DOCTYPE svg PUBLIC "-//W3C//DTD SVG 1.1//EN" "http://www.w3.org/Graphics/SVG/1.1/DTD/svg11.dtd"><svg t="1569722690991" class="icon" viewBox="0 0 1280 1024" version="1.1" xmlns="http://www.w3.org/2000/svg" p-id="1120" xmlns:xlink="http://www.w3.org/1999/xlink" width="250" height="200"><defs><style type="text/css"></style></defs><path d="M895.990293 831.319421h-511.994453v-63.657977c0-85.247076 171.176812-128.254611 255.655897-128.254611 84.479085 0 255.655897 43.007534 255.655897 128.254611v63.657977h0.767992z m-255.655897-511.994454c70.655235 0 128.254611 57.599376 128.254611 128.169278 0 70.655235-57.599376 128.254611-128.254611 128.254611a128.425275 128.425275 0 0 1-128.169278-128.254611c0-70.569902 57.599376-128.169278 128.169278-128.169278z m512.165119-191.912587H665.678122a62.207326 62.207326 0 0 1-43.690194-17.663809L529.828927 17.589569A60.842008 60.842008 0 0 0 486.053401 0.011093H128.254611C57.599376 0.011093 0.767992 57.610469 0.767992 128.180371L0 895.830722C0 966.400624 57.599376 1024 128.254611 1024h1023.476912c70.655235 0 128.254611-57.599376 128.25461-128.169278V255.66699c0-70.655235-57.599376-128.254611-127.486618-128.25461z" p-id="1121"></path></svg>