<?xml version="1.0" standalone="no"?><!DOCTYPE svg PUBLIC "-//W3C//DTD SVG 1.1//EN" "http://www.w3.org/Graphics/SVG/1.1/DTD/svg11.dtd"><svg t="1565688448347" class="icon" viewBox="0 0 1024 1024" version="1.1" xmlns="http://www.w3.org/2000/svg" p-id="9816" xmlns:xlink="http://www.w3.org/1999/xlink" width="200" height="200"><defs><style type="text/css"></style></defs><path d="M839.286115 332.444134a23.078175 23.078175 0 0 0-19.781293-14.301968 23.449655 23.449655 0 0 0-21.963736 11.005086 21.545822 21.545822 0 0 0 0.928699 23.821135 324.441069 324.441069 0 0 1 39.469716 150.681446h-145.248556L607.343488 295.435471a23.7747 23.7747 0 0 0-24.610529-14.255533 22.93887 22.93887 0 0 0-20.849297 16.94876l-75.596116 296.905137-107.636238-212.207769a23.821135 23.821135 0 0 0-22.288781-12.491004 23.078175 23.078175 0 0 0-20.384948 15.137797l-40.351981 118.594889H142.575969a324.533939 324.533939 0 0 1 40.35198-152.445975 22.103041 22.103041 0 0 0-9.519166-30.554204 23.96044 23.96044 0 0 0-31.761513 9.147687 366.371838 366.371838 0 0 0 0 356.620496c6.45446 9.937082 19.827728 13.373269 30.554204 7.893943a21.870866 21.870866 0 0 0 10.215691-28.789675 325.137593 325.137593 0 0 1-38.912497-118.594889h168.837516c10.029951 0.09287 19.038334-6.036545 22.288781-15.184232l27.814542-81.586226 111.3046 218.476489c3.900537 7.615334 12.026655 12.491004 20.895732 12.44457h2.321748a22.892436 22.892436 0 0 0 19.967033-16.902326l73.738717-289.754153 64.451725 157.321646a23.21748 23.21748 0 0 0 21.824432 14.255533h158.621825a324.301764 324.301764 0 0 1-39.423282 119.477153 21.917301 21.917301 0 0 0 9.286992 30.322029 23.728265 23.728265 0 0 0 31.575773-8.915512 366.371838 366.371838 0 0 0 2.786098-356.620496l-0.46435 1.764528z" p-id="9817"></path><path d="M874.483815 152.137183A510.784565 510.784565 0 1 0 152.002266 874.293688a510.784565 510.784565 0 0 0 722.527984-722.156505zM513.219823 977.704344c-256.413852 0-464.30317-207.889318-464.303169-464.349604 0-256.413852 207.889318-464.349604 464.349604-464.349604 256.413852 0 464.349604 207.935753 464.349605 464.349604a464.349604 464.349604 0 0 1-464.349605 464.349604z" p-id="9818"></path></svg>