<?xml version="1.0" standalone="no"?><!DOCTYPE svg PUBLIC "-//W3C//DTD SVG 1.1//EN" "http://www.w3.org/Graphics/SVG/1.1/DTD/svg11.dtd"><svg t="1569722752547" class="icon" viewBox="0 0 1138 1024" version="1.1" xmlns="http://www.w3.org/2000/svg" p-id="1456" xmlns:xlink="http://www.w3.org/1999/xlink" width="222.265625" height="200"><defs><style type="text/css"></style></defs><path d="M763.01588867 961.96572266a19.57236328 19.57236328 0 0 0 20.65957031-20.65957032V628.14833984a156.94101563 156.94101563 0 0 0-147.15527343-160.92773437H481.39235352a156.57890625 156.57890625 0 0 0-146.79228516 160.92773437v313.1578125a19.57236328 19.57236328 0 0 0 20.65957031 20.65957032z" p-id="1457"></path><path d="M245.79889648 961.96572266a19.21025391 19.21025391 0 0 0 20.29658204-20.65957032v-326.20605468a16.30986328 16.30986328 0 0 0-3.98671875-16.67285157 16.67285156 16.67285156 0 0 0-14.4975586-6.16113281h-63.06679687A123.59619141 123.59619141 0 0 0 62.03541992 714.41210938v226.16894531a19.57236328 19.57236328 0 0 0 20.29746094 20.65957031h163.46601562z m789.78076172 0a19.57236328 19.57236328 0 0 0 20.65957032-20.65957032V714.41210938A123.23320312 123.23320312 0 0 0 933.73024414 590.45380859h-63.06591797c-4.34970703 0-12.32314453 1.81230469-14.4984375 6.16113282a41.68212891 41.68212891 0 0 0-3.98671875 16.67285156v326.20605469a19.21025391 19.21025391 0 0 0 20.29746094 20.65957031zM915.2459668 560.00761719a144.97998047 144.97998047 0 1 0-142.80644532-144.97998047A143.16855469 143.16855469 0 0 0 915.2468457 560.00761719z m-708.2296875 0a142.80556641 142.80556641 0 0 0 142.8055664-144.97998047 142.80556641 142.80556641 0 1 0-285.61113281 0A142.80556641 142.80556641 0 0 0 207.01540039 560.00761719z" p-id="1458"></path><path d="M558.95583008 433.87402344a184.12470703 184.12470703 0 0 0 183.76347656-185.93701172 183.76259766 183.76259766 0 1 0-367.52607422 0A184.48769531 184.48769531 0 0 0 558.95583008 433.87490234z" p-id="1459"></path></svg>