<?xml version="1.0" standalone="no"?><!DOCTYPE svg PUBLIC "-//W3C//DTD SVG 1.1//EN" "http://www.w3.org/Graphics/SVG/1.1/DTD/svg11.dtd"><svg t="1571046946143" class="icon" viewBox="0 0 1024 1024" version="1.1" xmlns="http://www.w3.org/2000/svg" p-id="1328" xmlns:xlink="http://www.w3.org/1999/xlink" width="200" height="200"><defs><style type="text/css"></style></defs><path d="M512.24 151.091c-48.281 0-97.382 10.138-146.944 29.543L277.283 28.16a38.4 38.4 0 1 0-66.508 38.4l85.145 147.456c-16.998 9.677-34.048 20.122-51.097 32a38.4 38.4 0 0 0 43.93 63.027c15.36-10.7 30.514-19.558 45.72-28.16l50.894 88.167A190.669 190.669 0 0 0 320.24 512a192.256 192.256 0 0 0 192 192 190.464 190.464 0 0 0 60.365-10.65l47.82 82.842a319.693 319.693 0 0 1-108.185 19.917c-200.397 0-375.45-215.04-426.547-284.16 12.698-17.203 32.973-43.367 59.238-72.858a38.4 38.4 0 1 0-57.292-51.097C37.258 444.467 7.767 489.062 6.589 490.906a38.298 38.298 0 0 0 0 42.188C15.703 546.97 233.2 872.91 512.24 872.91c51.456 0 100.762-11.213 147.098-29.338l87.91 152.269a38.4 38.4 0 0 0 66.509-38.4L728.56 809.882c167.885-95.386 282.778-266.804 289.331-276.788a38.298 38.298 0 0 0 0-42.188c-9.062-13.824-226.56-339.815-505.65-339.815z m87.245 435.251L491.299 398.95c6.81-1.28 13.773-2.15 20.941-2.15 63.54 0 115.2 51.712 115.2 115.2 0 28.467-10.752 54.22-27.955 74.342zM512.24 627.2A115.354 115.354 0 0 1 397.04 512c0-28.467 10.752-54.22 27.955-74.342L533.232 625.1c-6.86 1.28-13.824 2.099-20.992 2.099z m178.125 116.531l-51.251-88.73a190.771 190.771 0 0 0 65.126-142.95 192.256 192.256 0 0 0-192-192 189.952 189.952 0 0 0-60.313 10.65l-47.821-82.79a319.949 319.949 0 0 1 108.134-19.969c200.346 0 375.399 214.938 426.496 284.11-35.072 47.41-128.46 163.43-248.371 231.68z" p-id="1329"></path></svg>