<?xml version="1.0" standalone="no"?><!DOCTYPE svg PUBLIC "-//W3C//DTD SVG 1.1//EN" "http://www.w3.org/Graphics/SVG/1.1/DTD/svg11.dtd"><svg t="1569722760029" class="icon" viewBox="0 0 1024 1024" version="1.1" xmlns="http://www.w3.org/2000/svg" p-id="1570" xmlns:xlink="http://www.w3.org/1999/xlink" width="200" height="200"><defs><style type="text/css"></style></defs><path d="M511.844352 169.8304m-77.423616 0a75.609 75.609 0 1 0 154.847232 0 75.609 75.609 0 1 0-154.847232 0ZM665.445376 488.46848l-76.176384 0 0-61.438976-0.623616 0 0-40.96c0-45.056-34.56-81.92-76.8-81.92s-76.8 36.864-76.8 81.92l0 40.96 0 61.438976-76.8 0 0 33.622016 122.88 0 0 410.196992 61.44 0L542.565376 522.090496l122.88 0L665.445376 488.46848zM785.299456 169.8304m-77.423616 0a75.609 75.609 0 1 0 154.847232 0 75.609 75.609 0 1 0-154.847232 0ZM861.78816 427.029504l0-40.96c0-45.056-34.56-81.92-76.8-81.92s-76.8 36.864-76.8 81.92l0 40.96 0 81.92 0 52.75136-42.742784 0-59.097088 0 0 83.781632 0 273.45408L558.871552 918.936576l0 13.350912 37.235712 0 69.338112 0 0-13.350912L665.445376 674.32448l42.742784 0 154.535936 0L862.724096 561.69984 862.724096 427.029504l-0.31232 0L861.78816 427.029504zM239.351808 169.8304m-77.423616 0a75.609 75.609 0 1 0 154.847232 0 75.609 75.609 0 1 0-154.847232 0ZM418.302976 645.482496l0-83.781632-59.097088 0-42.742784 0 0-52.75136 0-81.92 0-40.96c0-45.056-34.56-81.92-76.8-81.92s-76.8 36.864-76.8 81.92l0 40.96-0.623616 0-0.31232 0 0 134.67136 0 112.623616 154.535936 0 42.742784 0 0 244.612096 0 13.350912 69.338112 0 37.235712 0 0-13.350912-47.476736 0L418.302976 645.482496z" p-id="1571"></path></svg>